<?xml version="1.0" encoding="utf-8"?>
<!-- Generator: Adobe Illustrator 27.5.0, SVG Export Plug-In . SVG Version: 6.00 Build 0)  -->
<svg version="1.1" id="Layer_1" xmlns="http://www.w3.org/2000/svg" xmlns:xlink="http://www.w3.org/1999/xlink" x="0px" y="0px"
	 viewBox="0 0 4000 4000" style="enable-background:new 0 0 4000 4000;" xml:space="preserve">
<g>
	<g>
		<rect style="fill:#CCEEFF;" width="4000" height="4000"/>
	</g>
	<g>
		<g>
			<g>
				<g>
					<path style="fill:#37C11F;" d="M3018.628,2159.461c10-78.333,10.801-137.791-56.547-305
						c-75.585-187.661,25.737-272.721,25.737-272.721l-54.19,11.054c0,0-59.584,65.664-44.764,187.644
						c3.644,29.988,11.862,59.224,23.396,87.144c20.681,50.061,69.335,185.336,41.368,291.878"/>
				</g>
			</g>
			<g>
				<g>
					<path style="fill:#37C11F;" d="M3135.824,1102.119c-156.933,78.582-211.537,244.359-192.541,472.852l53.645-58.06
						c-10.286-166.176,21.7-269.95,90.686-347.985"/>
				</g>
			</g>
			<g>
				<path style="fill:#37C11F;" d="M2940.027,1516.911c-8.882-70.132-44.231-110.834-44.231-110.834l-7.129,40.05
					c0,0,12.461,84.278-2.133,291.139"/>
			</g>
			<g>
				<path style="fill:#4CD137;" d="M3381.939,1957.777c-32.6-52.25-71.35-94.5-118.3-123.3c44.35-108.5-54.6-156.6-107.55-64.75
					c-6.7,11.55-12.6,25.3-17.45,41.4c-23.95-7.5-48.45-19-71.1-31.45c-53-29.15-95.6-63.55-95.6-63.55
					c130.1,21.9,123.6-86.6,56.9-122.951c-24.75-13.5-57.8-17.1-95.2-0.4c53.65-109.8,155.85-127.2,281-62.35
					c74-75.2,133.35-71,184.6-32.45c31.2,23.4,59.4,59.5,86.05,98.15c-63.55,50.25-33.35,111.65,28.35,126.65
					C3528.789,1845.927,3477.889,1918.928,3381.939,1957.777z"/>
			</g>
			<g style="opacity:0.6;">
				<path style="fill:#FFFFFF;" d="M3442.739,1539.927c-56.25-54.6-121.85-72.8-206.7,13.4c-110.95-57.45-203.9-50.3-260.9,28.6
					c-13,0.95-26.9,4.351-41.5,10.85c53.65-109.8,155.85-127.2,281-62.35C3310.489,1432.977,3381.739,1468.828,3442.739,1539.927z"
					/>
			</g>
			<g>
				<path style="fill:#4CD137;" d="M3426.939,1419.477c-56.5-72.7-115.7-131.2-181.65-155c-4.8-43.4-30.85-61.799-58.2-57.6
					c-23.1,3.55-47.15,23.251-60.15,57.6c-84.35-54.65-39.65-203.35,128.35-185c57.9-57.8,125.35-70.4,210-1.55
					c-5.6,6.9-10,13.45-13.35,19.55c-34.45,62.95,43.85,83.25,83.35,62C3554.339,1292.877,3510.839,1373.277,3426.939,1419.477z"/>
			</g>
			<g style="opacity:0.6;">
				<path style="fill:#FFFFFF;" d="M3465.289,1077.927c-1.9,2.35-3.7,4.65-5.3,6.9c-72.1-45.8-131.25-30.1-182.8,21.3
					c-140.35-15.35-194.65,85.9-159.55,151.5c-71.35-59.2-23.75-195.8,137.65-178.151
					C3313.189,1021.677,3380.639,1009.077,3465.289,1077.927z"/>
			</g>
			<g>
				<path style="fill:#4CD137;" d="M2885.939,1452.827c-6.3,14.4-15.85,29.45-29,44.95c-52.35-115.9-176.65,32.65-50,83.35
					c-53.95,42.9-125.65,70.45-211.65,85.65c0-37.5-10.15-71.15-21.7-101.9c-16.45-43.55-35.8-81.2-33.3-115.4
					c101.65-15,80-96.7,20-101.7c60-76.65,125.4-67.599,183.35-5C2841.239,1300.427,2925.289,1363.227,2885.939,1452.827z"/>
			</g>
			<g style="opacity:0.6;">
				<path style="fill:#FFFFFF;" d="M2895.789,1411.228c-20.85-41.45-79.55-59.5-144.2-31.45c-50.5-54.55-106.6-68.45-159.9-20.4
					c-8.35-6.3-19.05-10.599-31.4-11.6c60-76.65,125.4-67.599,183.35-5C2825.239,1307.377,2897.339,1345.427,2895.789,1411.228z"/>
			</g>
			<g>
				<path style="fill:#9D48FF;" d="M3086.128,2264.46h-191.667c-28.995,0-52.5-23.505-52.5-52.5v0c0-28.995,23.505-52.5,52.5-52.5
					h191.667c28.995,0,52.5,23.505,52.5,52.5v0C3138.628,2240.956,3115.123,2264.46,3086.128,2264.46z"/>
			</g>
			<g style="opacity:0.3;">
				<path style="fill:#000072;" d="M3138.639,2211.977c0,14.501-5.9,27.65-15.4,37.15c-9.5,9.5-22.6,15.35-37.1,15.35h-191.7
					c-9.2,0-17.85-2.35-25.35-6.5h160.8c14.5,0,27.65-5.85,37.15-15.35c9.5-9.501,15.35-22.65,15.35-37.15c0-19.8-10.95-37-27.1-46
					h30.85C3115.139,2159.477,3138.639,2182.977,3138.639,2211.977z"/>
			</g>
			<g style="opacity:0.6;">
				<path style="fill:#FFFFFF;" d="M3077.139,2182.578h-160.8c-14.5,0-27.6,5.85-37.1,15.35c-9.5,9.5-15.4,22.65-15.4,37.15
					c0,8.199,1.9,15.95,5.25,22.9c-16.2-9-27.15-26.2-27.15-46c0-14.5,5.9-27.65,15.4-37.15c9.5-9.5,22.6-15.35,37.1-15.35h160.85
					C3064.739,2164.727,3072.389,2172.827,3077.139,2182.578z"/>
			</g>
			<g>
				<path style="fill:#9D48FF;" d="M2894.401,2264.4c8.605,224.495,0,392.223-90.833,534.167
					c-61.059,94.699-79.56,258.632-10.207,352.566c20.93,28.347,54.547,44.516,89.784,44.516h209.346
					c35.237,0,68.854-16.168,89.784-44.516c69.354-93.934,50.852-257.867-10.207-352.566
					c-90.833-141.944-99.438-309.672-90.833-534.167"/>
			</g>
			<g style="opacity:0.3;">
				<path style="fill:#000072;" d="M3182.289,3151.127c-20.95,28.35-54.55,44.5-89.8,44.5h-209.35c-35.25,0-68.85-16.15-89.8-44.5
					c-7.9-10.7-14.65-22.3-20.3-34.6l183.05,17.401c35.05,3.3,70.05-9.6,93.6-35.85c77.9-86.95,74.95-251.9,23.15-351.95
					c-70.15-136.45-70.4-287.75-47.4-481.75h55.8c-8.6,224.501,0,392.25,90.85,534.2
					C3233.139,2893.277,3251.639,3057.177,3182.289,3151.127z"/>
			</g>
			<g style="opacity:0.6;">
				<path style="fill:#FFFFFF;" d="M2918.889,3195.627h-35.75c-35.25,0-68.85-16.15-89.8-44.5c-55.3-74.9-54.75-194.2-21.25-287.55
					c2.6-7.45,5.5-14.7,8.55-21.75c6.75-15.5,14.45-30.05,22.95-43.25c6.85-10.7,13.2-21.5,19.1-32.5c2.6-4.85,5.15-9.75,7.6-14.65
					c65.75-131.851,71.75-286.901,64.1-487.051h35.75c7.85,205.3,1.35,363.101-69.3,497.15c-0.25,0.45-0.45,0.9-0.75,1.35
					c22.15,18.15,26.95,53.4,9.9,82.9c-15.2,26.35-43.1,39.9-67.95,35.3c-27.55,90.3-24.8,199.8,27.1,270.05
					C2850.039,3179.477,2883.639,3195.627,2918.889,3195.627z"/>
			</g>
			<g>
				<path style="fill:#000072;" d="M3086.129,2279.46h-191.667c-37.219,0-67.5-30.281-67.5-67.5s30.281-67.5,67.5-67.5h191.667
					c37.219,0,67.5,30.281,67.5,67.5S3123.348,2279.46,3086.129,2279.46z M2894.461,2174.46c-20.678,0-37.5,16.821-37.5,37.5
					s16.822,37.5,37.5,37.5h191.667c20.679,0,37.5-16.821,37.5-37.5s-16.821-37.5-37.5-37.5H2894.461z"/>
			</g>
			<g>
				<path style="fill:#000072;" d="M3092.491,3210.649h-209.346c-40.384,0-78.457-18.918-101.851-50.608
					c-73.01-98.882-53.945-270.94,9.665-369.602c85.688-133.904,97.322-294.072,88.45-525.466
					c-0.317-8.276,6.138-15.247,14.417-15.564c8.294-0.317,15.247,6.138,15.564,14.417c9.097,237.346-3.235,402.256-93.188,542.827
					c-58.218,90.295-76.421,246.658-10.771,335.571c17.761,24.06,46.814,38.425,77.715,38.425h209.346
					c30.901,0,59.953-14.365,77.717-38.425c65.65-88.916,47.444-245.278-10.747-335.53
					c-89.98-140.613-102.312-305.522-93.215-542.869c0.317-8.279,7.2-14.734,15.564-14.417c8.279,0.317,14.734,7.288,14.417,15.564
					c-8.872,231.394,2.761,391.563,88.477,525.508c63.584,98.616,82.649,270.676,9.641,369.561
					C3170.948,3191.731,3132.872,3210.649,3092.491,3210.649z"/>
			</g>
			<g>
				<path style="fill:#000072;" d="M3381.966,1972.798c-5.049,0-9.922-2.559-12.732-7.063
					c-33.264-53.318-70.374-92.075-113.447-118.486c-6.265-3.843-8.823-11.66-6.043-18.464c13.623-33.33,13.325-63.42-0.801-80.491
					c-8.098-9.78-20.149-13.887-33.076-11.274c-26.218,5.308-49.724,34.626-62.871,78.423c-1.155,3.838-3.794,7.056-7.334,8.933
					c-3.54,1.88-7.686,2.261-11.509,1.069c-81.787-25.557-167.989-94.717-171.616-97.646c-5.305-4.285-7.053-11.609-4.253-17.827
					c2.8-6.223,9.448-9.761,16.165-8.635c41.655,7.007,71.492-0.01,81.872-19.241c8.926-16.541,2.976-41.233-14.47-60.051
					c-25.088-27.058-63.264-32.876-102.114-15.547c-5.762,2.568-12.515,1.255-16.899-3.284c-4.382-4.539-5.457-11.335-2.686-17.002
					c25.093-51.355,60.735-84.968,105.938-99.907c52.652-17.41,115.081-8.704,185.662,25.859
					c42.969-41.152,83.962-59.451,125.017-55.886c65.613,5.688,116.091,66.482,160.869,131.328
					c4.492,6.509,3.162,15.386-3.042,20.291c-22.605,17.869-32.786,38.093-28.667,56.948c4.333,19.832,24.448,36.858,51.245,43.376
					c6.062,1.475,10.579,6.548,11.343,12.739c15.09,122.38-32.324,206.741-140.923,250.737
					C3385.758,1972.441,3383.851,1972.798,3381.966,1972.798z M3281.893,1828.349c39.724,26.575,74.517,62.944,105.845,110.647
					c84.773-38.542,121.516-105.647,112.075-204.583c-33.14-11.074-56.951-34.604-63.191-63.167
					c-3.53-16.15-3.887-46.482,28.643-77.585c-37.114-52.341-81.189-103.171-131.089-107.498
					c-34.087-2.991-69.695,14.951-108.862,54.761c-4.614,4.69-11.75,5.818-17.588,2.8c-66.213-34.285-125.762-44.294-172.222-28.938
					c-27.393,9.055-50.728,26.848-69.675,53.064c42.754-5.986,77.446,11.602,98.022,33.794
					c26.455,28.538,34.041,66.592,18.87,94.697c-7.236,13.411-24.077,32.444-62.012,36.792
					c28.516,19.402,68.879,44.097,108.503,58.899c17.476-47.014,46.372-77.466,80.701-84.419
					c23.77-4.819,46.992,3.245,62.144,21.553C3291.744,1752.961,3295.152,1788.633,3281.893,1828.349z"/>
			</g>
			<g>
				<path style="fill:#000072;" d="M3220.153,1516.463c4.011,1.839,7.006,3.431,10.314,5.258c3.23,1.779,6.379,3.619,9.479,5.518
					c6.184,3.816,12.238,7.762,18.06,12.003c11.72,8.371,22.756,17.576,33.12,27.435c20.76,19.678,38.633,42.245,52.744,66.808
					c14.2,24.517,24.354,51.109,30.638,78.306c6.093,27.276,8.412,55.116,7.454,82.67c-1.538-27.537-6.368-54.758-14.684-80.675
					c-8.507-25.849-20.562-50.344-36.066-72.252c-15.42-21.957-34.019-41.451-54.867-57.894
					c-10.404-8.237-21.331-15.777-32.706-22.429c-5.652-3.383-11.469-6.451-17.302-9.359c-2.921-1.444-5.865-2.82-8.804-4.106
					c-2.844-1.267-6.099-2.584-8.442-3.398l-0.127-0.044c-7.836-2.722-11.982-11.281-9.26-19.117
					c2.722-7.836,11.281-11.982,19.117-9.26C3219.27,1516.084,3219.728,1516.27,3220.153,1516.463z"/>
			</g>
			<g>
				<path style="fill:#000072;" d="M3426.969,1434.46c-4.504,0.002-8.923-2.026-11.851-5.796
					c-64.089-82.458-119.67-130.154-174.917-150.095c-5.381-1.941-9.187-6.775-9.817-12.458
					c-2.891-26.14-14.482-42.388-31.799-44.57c-18.096-2.312-43.845,11.833-57.59,48.22c-1.604,4.243-5.042,7.534-9.351,8.95
					c-4.314,1.414-9.031,0.803-12.837-1.66c-41.987-27.192-58.855-77.358-41.97-124.834c16.565-46.58,71.706-96.882,172.99-88.354
					c68.145-64.363,143.792-63.574,224.929,2.405c6.418,5.22,7.4,14.648,2.195,21.077c-10.52,12.993-26.326,37.014-13.989,51.899
					c11.963,14.431,44.875,17.966,65.22,7.009c4.309-2.324,9.49-2.395,13.872-0.183c4.375,2.209,7.395,6.416,8.088,11.27
					c18.579,130.029-20.43,222.639-115.942,275.259C3431.917,1433.855,3429.429,1434.46,3426.969,1434.46z M3258.844,1253.594
					c55.491,22.512,110.537,69.395,171.831,146.331c72.3-44.792,102.507-117.009,92.019-220.012
					c-28.745,6.641-64.565,0.513-82.83-21.526c-10.142-12.236-21.846-37.805,4.673-77.605
					c-66.343-48.955-123.377-45.864-178.648,9.297c-3.213,3.206-7.695,4.8-12.222,4.294
					c-88.308-9.656-134.646,28.755-148.567,67.898c-10.271,28.879-3.792,58.125,16.348,78.521
					c18.879-33.73,49.666-52.935,80.894-49.016C3225.213,1194.66,3251.183,1212.51,3258.844,1253.594z"/>
			</g>
			<g>
				<path style="fill:#000072;" d="M3257.932,1064.694c6.041,1.497,10.72,3.109,15.885,4.922c5.033,1.788,9.949,3.768,14.802,5.869
					c9.692,4.222,19.093,8.998,28.14,14.351c18.058,10.73,34.819,23.678,49.011,39.007c7.062,7.68,13.582,15.82,19.259,24.49
					c5.576,8.732,10.593,17.766,14.567,27.229c8.054,18.876,12.452,38.928,14.032,58.899c-4.054-19.645-10.845-38.588-20.739-55.543
					c-4.894-8.508-10.693-16.402-16.88-23.861c-6.289-7.398-13.253-14.142-20.594-20.361c-14.746-12.4-31.443-22.213-48.937-29.846
					c-8.762-3.802-17.758-7.031-26.863-9.707c-4.553-1.326-9.133-2.535-13.717-3.539c-4.447-0.982-9.452-1.958-13.241-2.376
					c-8.252-0.912-14.203-8.342-13.29-16.594c0.912-8.252,8.341-14.203,16.593-13.291
					C3256.603,1064.413,3257.319,1064.547,3257.932,1064.694z"/>
			</g>
			<g>
				<path style="fill:#000072;" d="M2595.294,1681.799c-3.498,0-6.917-1.223-9.639-3.506c-3.398-2.852-5.361-7.058-5.361-11.494
					c0-45.544-16.436-86.431-30.938-122.505c-13.501-33.584-26.252-65.305-24.023-95.923c0.51-7.009,5.818-12.725,12.771-13.75
					c36.27-5.352,58.421-20.735,57.805-40.149c-0.442-13.928-13.511-29.783-36.86-31.729c-5.493-0.459-10.295-3.894-12.5-8.945
					c-2.207-5.051-1.465-10.906,1.934-15.249c30.229-38.628,63.489-58.955,98.855-60.417c33.782-1.416,67.485,14.395,100.085,46.973
					c58.611-21.736,116.306-10.396,145.901,29.553c30.635,41.35,21.311,98.494-24.937,152.856
					c-3.333,3.918-8.447,5.833-13.523,5.134c-5.088-0.718-9.456-3.992-11.572-8.677c-11.059-24.465-25.979-36.555-42.034-34.028
					c-16.892,2.656-31.873,20.225-34.106,39.995c-2.722,24.116,13.396,44.453,45.386,57.263c4.961,1.987,8.491,6.465,9.265,11.753
					c0.774,5.288-1.323,10.588-5.508,13.916c-53.743,42.72-127.219,72.563-218.386,88.699
					C2597.037,1681.723,2596.163,1681.799,2595.294,1681.799z M2555.335,1461.953c1.673,20.942,11.148,44.514,21.856,71.152
					c13.674,34.014,28.957,72.034,32.392,115.728c68.066-13.723,124.7-35.669,168.879-65.427
					c-29.475-18.789-44.568-46.309-41.121-76.833c3.73-33.049,29.204-61.538,59.253-66.265c12.08-1.892,39.548-1.833,62.243,30.364
					c25.11-37.014,29.192-72.761,10.378-98.157c-18.938-25.559-63.276-40.408-119.617-15.959c-5.845,2.544-12.656,1.101-16.98-3.572
					c-28.594-30.898-56.85-46.018-84.045-44.875c-20.784,0.859-41.287,11.416-61.147,31.44
					c22.385,10.215,37.725,30.579,38.467,53.975C2626.722,1419.646,2608.294,1450.283,2555.335,1461.953z"/>
			</g>
			<g>
				<path style="fill:#000072;" d="M2753.551,1354.043c-13.853,10.613-26.154,23.614-36.658,38.288
					c-10.522,14.67-19.263,30.954-26.493,48.057c-14.453,34.297-23.075,71.52-28.933,109.072
					c0.909-38.006,4.484-76.357,14.757-113.975c5.167-18.769,12.104-37.32,21.527-54.98c9.398-17.643,21.367-34.366,35.955-48.96
					l0.066-0.066c5.87-5.873,15.391-5.875,21.263-0.005c5.874,5.87,5.875,15.391,0.005,21.264
					C2754.587,1353.191,2754.044,1353.66,2753.551,1354.043z"/>
			</g>
			<g>
				<path style="fill:#000072;" d="M2953.636,2171.963c-1.05,0-2.117-0.132-3.181-0.413c-6.677-1.753-10.669-8.586-8.916-15.264
					c26.814-102.153-19.622-232.593-40.83-283.931c-12.471-30.183-20.632-60.601-24.255-90.408
					c-15.332-126.204,45.329-194.7,47.917-197.554c4.639-5.112,12.539-5.496,17.659-0.857c5.105,4.634,5.493,12.522,0.876,17.634
					c-0.857,0.969-55.476,63.823-41.633,177.761c3.35,27.561,10.933,55.781,22.542,83.877
					c22.173,53.674,70.645,190.334,41.904,299.824C2964.246,2168.247,2959.18,2171.963,2953.636,2171.963z"/>
			</g>
			<g>
				<path style="fill:#000072;" d="M3018.646,2171.963c-0.53,0-1.062-0.034-1.599-0.103c-6.848-0.874-11.692-7.134-10.818-13.982
					c9.673-75.759,10.747-133.672-55.742-298.748c-78.076-193.845,24.873-283.252,29.294-286.963
					c5.291-4.446,13.174-3.75,17.61,1.536c4.428,5.273,3.755,13.132-1.494,17.576l0,0c-3.838,3.279-93.184,82.329-22.222,258.511
					c68.76,170.713,67.537,231.472,57.354,311.252C3030.223,2167.353,3024.842,2171.96,3018.646,2171.963z"/>
			</g>
			<g>
				<path style="fill:#000072;" d="M2943.267,1587.47c-6.436,0-11.899-4.937-12.441-11.465
					c-9.893-118.984,0.569-219.309,31.096-298.188c32.678-84.443,89.304-147.317,168.306-186.875
					c6.165-3.086,13.679-0.591,16.772,5.581c3.091,6.172,0.593,13.682-5.581,16.772c-144.69,72.451-205.427,223.127-185.681,460.64
					c0.574,6.88-4.541,12.92-11.421,13.491C2943.966,1587.456,2943.614,1587.47,2943.267,1587.47z"/>
			</g>
			<g>
				<path style="fill:#000072;" d="M2996.915,1529.411c-6.55,0-12.053-5.1-12.463-11.729
					c-10.039-162.188,18.889-272.302,93.799-357.036c4.575-5.173,12.473-5.654,17.644-1.086c5.173,4.573,5.659,12.473,1.086,17.644
					c-70.164,79.365-97.173,183.896-87.578,338.936c0.427,6.89-4.812,12.822-11.704,13.247
					C2997.437,1529.404,2997.176,1529.411,2996.915,1529.411z"/>
			</g>
			<g>
				<path style="fill:#000072;" d="M2940.013,1529.414c-6.206,0-11.587-4.617-12.385-10.933
					c-8.252-65.139-40.962-103.85-41.289-104.233c-4.492-5.227-3.916-13.113,1.296-17.617c5.217-4.504,13.083-3.955,17.6,1.25
					c1.543,1.777,37.942,44.407,47.192,117.461c0.869,6.848-3.979,13.103-10.83,13.97
					C2941.065,1529.38,2940.535,1529.414,2940.013,1529.414z"/>
			</g>
			<g>
				<path style="fill:#000072;" d="M2886.546,1749.768c-0.295,0-0.593-0.01-0.891-0.032c-6.887-0.486-12.075-6.462-11.589-13.347
					c14.287-202.507,2.356-287.607,2.234-288.442c-0.996-6.829,3.726-13.176,10.552-14.18c6.824-1.008,13.174,3.708,14.182,10.532
					c0.518,3.496,12.493,87.993-2.031,293.848C2898.538,1744.734,2893.05,1749.768,2886.546,1749.768z"/>
			</g>
			<g style="opacity:0.3;">
				<path style="fill:#000072;" d="M3381.939,1957.777c-32.6-52.25-71.35-94.5-118.3-123.3c44.35-108.5-54.6-156.6-107.55-64.75
					c5.05-18.1,13.8-34.9,26.85-48.4c24.7-25.5,66.6-35.651,97.3-17.8c20.2,11.8,32.75,33,49.45,49.35c16.7,16.4,43.25,28.1,63,15.6
					c17.15-10.799,20.6-34.7,16.95-54.6c-3.65-19.9-12.5-38.9-13.5-59.1c-1.3-27.6,12.1-53.45,18.2-80.4
					c4.05-17.85,3.35-36.849-4.35-53.6c-4.6-10.15-10.55-16.799-10.75-22.8c31.2,23.4,59.4,59.5,86.05,98.15
					c-63.55,50.25-33.35,111.65,28.35,126.65C3528.789,1845.927,3477.889,1918.928,3381.939,1957.777z"/>
			</g>
			<g style="opacity:0.3;">
				<path style="fill:#000072;" d="M3109.689,1726.228c-9.55,20.799-24.5,38.65-42.15,53.45c-53-29.15-95.6-63.55-95.6-63.55
					c130.1,21.9,123.6-86.6,56.9-122.951c1.8-0.599,3.55-1.1,5.3-1.55c30.05-7.6,63.85,18.65,76.45,43.85
					C3124.589,1663.477,3122.689,1697.777,3109.689,1726.228z"/>
			</g>
			<g style="opacity:0.3;">
				<path style="fill:#000072;" d="M3426.939,1419.477c-56.5-72.7-115.7-131.2-181.65-155c-4.8-43.4-30.85-61.799-58.2-57.6
					c0.4-0.3,0.85-0.599,1.25-0.85c27.25-17.55,63.9-19.4,92.8-4.7c21.05,10.699,37.2,28.85,53.45,45.95
					c16.3,17.1,34.1,34.15,56.55,41.45s50.75,2,63.2-18.101c11.55-18.6,6.25-43.099-3.15-62.949
					c-9.4-19.801-22.6-38.301-26.7-59.801c-5.4-28,6.45-46.75,27.45-50.4c-34.45,62.95,43.85,83.25,83.35,62
					C3554.339,1292.877,3510.839,1373.277,3426.939,1419.477z"/>
			</g>
			<g style="opacity:0.3;">
				<path style="fill:#000072;" d="M2885.939,1452.827c-6.3,14.4-15.85,29.45-29,44.95c-52.35-115.9-176.65,32.65-50,83.35
					c-53.95,42.9-125.65,70.45-211.65,85.65c0-37.5-10.15-71.15-21.7-101.9c6.95,2.9,14.05,5.3,21.4,6.9
					c40.8,8.8,86.15-12.2,105.85-48.95c11.25-21,14.5-45.6,26.45-66.2c15.2-26.35,44.7-43.75,75.1-44.45
					C2834.139,1411.478,2864.689,1429.577,2885.939,1452.827z"/>
			</g>
		</g>
		<g>
			<g>
				<path style="fill:#06A0FF;" d="M669.062,2952.952c-12.571,11.409-29.208,18.328-47.431,18.328
					c-38.927,0-70.459-31.532-70.459-70.406c0-38.927,31.532-70.459,70.459-70.459c18.222,0,34.86,6.919,47.431,18.381v-91.692
					c-14.948-5.018-30.846-7.658-47.431-7.658c-83.611,0-151.429,67.765-151.429,151.429c0,83.611,67.818,151.376,151.429,151.376
					c17.43,0,34.173-2.958,49.755-8.398"/>
			</g>
			<g style="opacity:0.55;">
				<g>
					<path style="fill:#FFFFFF;" d="M568.813,2947.459c7.553,30.688,35.283,53.451,68.4,53.451c11.831,0,23.029-2.904,32.853-8.133
						l-1.004-39.825c-12.571,11.408-29.208,18.328-47.431,18.328C600.557,2971.28,581.701,2962.037,568.813,2947.459z"/>
				</g>
			</g>
			<g style="opacity:0.55;">
				<g>
					<path style="fill:#FFFFFF;" d="M496.083,2985.541c-6.708-17.06-10.353-35.599-10.353-55.036
						c0-83.664,67.819-151.43,151.482-151.43c10.933,0,21.603,1.163,31.849,3.381v-25.353c-14.948-5.017-30.846-7.658-47.431-7.658
						c-83.611,0-151.429,67.766-151.429,151.429C470.202,2932.195,479.762,2961.351,496.083,2985.541z"/>
				</g>
			</g>
			<g>
				<path style="fill:#06A0FF;" d="M846.901,3193.116h66.903c98.208,0,177.821-79.613,177.821-177.821v-331.874
					c0-16.044-13.006-29.05-29.05-29.05H698.13c-16.044,0-29.05,13.006-29.05,29.05v331.874
					C669.08,3113.503,748.693,3193.116,846.901,3193.116z"/>
			</g>
			<g style="opacity:0.3;">
				<g>
					<path style="fill:#000070;" d="M746.229,3161.848c28.627,19.754,63.276,31.268,100.671,31.268h66.92
						c98.189,0,177.786-79.597,177.786-177.838v-331.856c0-16.057-12.993-29.05-29.05-29.05h-53.663v330.536
						c0,98.241-79.597,177.838-177.838,177.838h-66.867C758.113,3162.746,752.145,3162.428,746.229,3161.848z"/>
				</g>
			</g>
			<g style="opacity:0.55;">
				<g>
					<path style="fill:#FFFFFF;" d="M669.062,2683.422v331.856c0,98.241,79.649,177.838,177.838,177.838h44.314
						c-98.242,0-177.839-79.597-177.839-177.838v-331.856c0-16.057,12.993-29.05,29.05-29.05h-44.314
						C682.108,2654.372,669.062,2667.365,669.062,2683.422z"/>
				</g>
			</g>
			<g>
				<path style="fill:#000072;" d="M913.805,3210.615H846.9c-107.7,0-195.32-87.62-195.32-195.32v-331.873
					c0-25.669,20.881-46.55,46.55-46.55h364.443c25.669,0,46.55,20.881,46.55,46.55v331.873
					C1109.124,3122.995,1021.505,3210.615,913.805,3210.615z M698.131,2671.872c-6.37,0-11.55,5.181-11.55,11.55v331.873
					c0,88.401,71.919,160.32,160.32,160.32h66.904c88.401,0,160.32-71.919,160.32-160.32v-331.873c0-6.37-5.181-11.55-11.55-11.55
					H698.131z"/>
			</g>
			<g>
				<path style="fill:#000072;" d="M621.632,3069.751c-93.149,0-168.931-75.757-168.931-168.877
					c0-93.149,75.781-168.931,168.931-168.931c18.23,0,36.06,2.883,52.998,8.569l11.931,4.004v143.926l-29.292-26.716
					c-9.766-8.906-22.422-13.811-35.637-13.811c-29.202,0-52.959,23.757-52.959,52.959c0,29.172,23.757,52.905,52.959,52.905
					c13.208,0,25.874-4.895,35.667-13.784l23.525,25.913c-16.248,14.749-37.268,22.871-59.192,22.871
					c-48.501,0-87.959-39.434-87.959-87.905c0-48.501,39.458-87.959,87.959-87.959c10.315,0,20.425,1.797,29.929,5.239v-47.834
					c-9.71-2.244-19.732-3.376-29.929-3.376c-73.85,0-133.931,60.081-133.931,133.931c0,73.821,60.081,133.877,133.931,133.877
					c15.083,0,29.88-2.498,43.984-7.419l11.538,33.042C659.332,3066.596,640.65,3069.751,621.632,3069.751z"/>
			</g>
		</g>
		<g>
			<g>
				<path style="fill:#939393;" d="M2512.921,1960.655c-17.016,12.181-35.723,23.675-56.148,34.508
					c-171.033,90.709-376.865,90.709-547.899,0c-4.386-2.325-8.667-4.677-12.895-7.081
					c-191.432-108.042-221.976-279.234-90.999-513.761c-7.557-52.581-12.128-104.607-11.917-155.788
					c0.079-28.193,1.665-56.148,4.941-83.786c3.092-25.921,26.291-44.548,52.317-42.329c85.979,7.372,162.262,28.484,226.812,66.109
					l68.038-4.254c25.075-1.559,50.229-1.559,75.304,0l68.038,4.254c64.55-37.626,140.833-58.738,226.812-66.109
					c26.026-2.219,49.225,16.408,52.317,42.329c3.276,27.638,4.861,55.593,4.941,83.786c0.212,51.181-4.36,103.207-11.917,155.788
					C2681.048,1689.903,2664.983,1851.952,2512.921,1960.655z"/>
			</g>
			<g>
				<path style="fill:#FFFFFF;" d="M2512.921,1960.655c-17.016,12.181-35.723,23.675-56.148,34.508
					c-171.033,90.709-376.865,90.709-547.899,0c-4.386-2.325-8.667-4.677-12.895-7.081
					c-161.891-129.629-61.485-292.71,83.839-272.893c68.593,0.608,128.943-7.477,120.646-87.459
					c-6.949-63.467,4.545-110.156,39.924-135.019c29.25-20.583,68.831-20.583,98.081,0c35.38,24.864,46.874,71.552,39.924,135.019
					c-8.296,79.981,52.053,88.067,120.646,87.459C2534.27,1696.746,2630.607,1836.654,2512.921,1960.655z"/>
			</g>
			<g style="opacity:0.6;">
				<path style="fill:#FFFFFF;" d="M1850.321,1197.579c83.918,7.187,158.589,27.48,222.135,63.441l0,0
					c-19.732,5.257-40.646,4.34-59.713-2.97c-49.141-18.839-103.506-30.335-162.422-35.396
					c-26.026-2.219-49.225,16.409-52.317,42.329c-2.801,23.595-4.36,47.455-4.809,71.473c-0.079-4.254-0.132-8.508-0.132-12.762
					c0.079-28.193,1.665-56.148,4.941-83.786C1801.096,1213.988,1824.295,1195.36,1850.321,1197.579z"/>
			</g>
			<g style="opacity:0.3;">
				<path style="fill:#000072;" d="M2512.934,1960.659c-17.007,12.201-35.758,23.663-56.146,34.49
					c-171.024,90.742-376.856,90.742-547.935,0c-4.383-2.324-8.662-4.647-12.887-7.078
					c-113.03-63.751-169.915-149.58-170.603-257.435c28.047,49.12,73.576,91.428,136.482,126.922
					c4.226,2.429,8.504,4.754,12.887,7.077c171.025,90.741,376.857,90.741,547.934,0c20.388-10.828,39.085-22.289,56.146-34.49
					c94.702-67.66,136.64-156.078,125.76-265.146C2673.5,1735.918,2642.866,1867.753,2512.934,1960.659z"/>
			</g>
			<g style="opacity:0.6;">
				<path style="fill:#FFFFFF;" d="M2509.577,1197.579c-83.918,7.187-158.589,27.48-222.135,63.441l0,0
					c19.732,5.257,40.646,4.34,59.713-2.97c49.141-18.839,103.506-30.335,162.422-35.396c26.026-2.219,49.225,16.409,52.316,42.329
					c2.801,23.595,4.36,47.455,4.809,71.473c0.079-4.254,0.132-8.508,0.132-12.762c-0.079-28.193-1.665-56.148-4.941-83.786
					C2558.802,1213.988,2535.603,1195.36,2509.577,1197.579z"/>
			</g>
			<g>
				<path style="fill:#000072;" d="M2182.823,2078.401c-96.501,0-193.005-23.328-280.974-69.98
					c-95.818-50.818-156.392-117.219-180.039-197.361c-27.69-93.843-4.939-208.088,67.612-339.617
					c-12.62-90.178-14.683-168.23-6.314-238.472c4.065-34.048,34.114-58.406,68.486-55.5
					c88.601,7.598,165.647,29.731,229.106,65.806l63.545-3.972c25.596-1.599,51.56-1.599,77.156,0l63.542,3.972
					c63.462-36.074,140.508-58.208,229.099-65.806c34.363-2.935,64.431,21.45,68.494,55.5c8.369,70.237,6.306,148.291-6.313,238.472
					c72.553,131.528,95.302,245.774,67.612,339.617c-23.647,80.142-84.221,146.543-180.039,197.361
					C2375.829,2055.073,2279.324,2078.401,2182.823,2078.401z M1846.08,1207.236c-16.868,0-31.162,12.368-33.181,29.287
					c-8.21,68.904-5.945,145.991,6.931,235.667c0.466,3.254-0.149,6.575-1.753,9.446c-70.417,126.089-93.125,234.067-67.493,320.933
					c21.277,72.112,76.899,132.454,165.322,179.348c167.134,88.643,366.699,88.643,533.833,0
					c88.423-46.895,144.045-107.234,165.323-179.348c25.632-86.865,2.925-194.844-67.49-320.933
					c-1.604-2.871-2.219-6.191-1.753-9.446c12.874-89.68,15.139-166.768,6.929-235.669c-2.134-17.896-17.991-30.715-36.147-29.158
					c-85.986,7.373-160.186,28.948-220.532,64.124c-2.568,1.497-5.539,2.185-8.489,2.012l-68.047-4.253
					c-24.358-1.523-49.053-1.523-73.416,0l-68.049,4.253c-2.983,0.203-5.923-0.513-8.489-2.012
					c-60.344-35.176-134.544-56.75-220.54-64.124C1848.048,1207.278,1847.059,1207.236,1846.08,1207.236z"/>
			</g>
			<g>
				<path style="fill:#FF85B7;" d="M1865.752,1397.906c32.443-36.694,65.552-68.586,100.406-87.855
					c-29.969-14.881-61.911-26.662-96.295-34.608c-10.863-2.51-21.092,6.136-20.408,17.265
					C1851.628,1328.036,1857.361,1363.078,1865.752,1397.906z"/>
			</g>
			<g style="opacity:0.3;">
				<path style="fill:#000072;" d="M1966.158,1310.051c-11.071,6.104-21.957,13.502-32.685,21.904
					c-20.266-8.112-41.431-14.849-63.599-19.949c-7.425-1.718-14.532,1.77-18.1,7.663c-0.977-8.957-1.77-17.941-2.325-26.951
					c-0.687-11.15,9.538-19.791,20.425-17.281C1904.25,1283.391,1936.194,1295.175,1966.158,1310.051z"/>
			</g>
			<g>
				<path style="fill:#FF85B7;" d="M2508.666,1397.906c-32.444-36.694-65.552-68.586-100.406-87.855
					c29.969-14.881,61.911-26.662,96.296-34.608c10.863-2.51,21.092,6.136,20.407,17.265
					C2522.79,1328.036,2517.057,1363.078,2508.666,1397.906z"/>
			</g>
			<g style="opacity:0.3;">
				<path style="fill:#000072;" d="M2408.258,1310.051c11.071,6.104,21.957,13.502,32.685,21.904
					c20.266-8.112,41.431-14.849,63.599-19.949c7.425-1.718,14.532,1.77,18.1,7.663c0.977-8.957,1.77-17.941,2.325-26.951
					c0.687-11.15-9.538-19.791-20.425-17.281C2470.166,1283.391,2438.221,1295.175,2408.258,1310.051z"/>
			</g>
			<g>
				<path style="fill:#000072;" d="M1865.753,1408.476c-0.85,0-1.704-0.103-2.551-0.313c-3.823-0.95-6.802-3.95-7.725-7.781
					c-9.026-37.468-14.446-72.476-16.572-107.026c-0.532-8.665,2.964-16.851,9.59-22.458c6.626-5.615,15.276-7.703,23.75-5.752
					c33.809,7.813,66.99,19.736,98.613,35.439c3.521,1.746,5.779,5.303,5.867,9.231c0.088,3.931-2.014,7.583-5.452,9.485
					c-29.248,16.169-60.261,43.372-97.603,85.605C1871.639,1407.207,1868.741,1408.476,1865.753,1408.476z M1866.048,1285.573
					c-1.853,0-3.193,0.862-3.896,1.46c-0.872,0.737-2.312,2.373-2.148,5.027c1.672,27.2,5.476,54.739,11.572,83.672
					c26.321-28.34,49.885-49.338,72.354-64.441c-24.788-10.964-50.425-19.536-76.448-25.549
					C1866.976,1285.625,1866.495,1285.573,1866.048,1285.573z"/>
			</g>
			<g>
				<path style="fill:#000072;" d="M2508.665,1408.476c-2.988,0-5.886-1.27-7.917-3.569c-37.341-42.234-68.354-69.436-97.602-85.605
					c-3.438-1.902-5.54-5.554-5.452-9.485c0.088-3.928,2.346-7.485,5.867-9.231c31.624-15.703,64.805-27.627,98.616-35.439
					c8.472-1.958,17.122,0.142,23.748,5.752c6.626,5.608,10.122,13.794,9.59,22.456c-2.126,34.553-7.546,69.561-16.572,107.029
					c-0.923,3.831-3.901,6.831-7.725,7.781C2510.369,1408.374,2509.515,1408.476,2508.665,1408.476z M2430.489,1311.291
					c22.469,15.103,46.033,36.101,72.354,64.441c6.096-28.933,9.9-56.472,11.572-83.674c0.164-2.651-1.277-4.287-2.148-5.024
					c-0.876-0.747-2.742-1.892-5.327-1.292C2480.914,1291.753,2455.279,1300.327,2430.489,1311.291z"/>
			</g>
			<g>
				<path style="fill:#000072;" d="M2032.1,1407.529c-9.651,2.291-17.482,3.823-24.86,6.177c-7.318,2.284-14.234,4.825-21.194,8.277
					c-6.923,3.474-13.766,7.807-20.643,12.781c-6.896,4.981-13.752,10.557-21.296,16.481l-0.163,0.128
					c-2.578,2.024-6.309,1.575-8.333-1.003c-1.137-1.448-1.487-3.287-1.125-4.956c2.26-10.145,6.949-19.597,13.261-28.032
					c6.329-8.423,14.414-15.879,24.004-21.459c9.52-5.609,20.72-9.273,32.086-9.308c11.304-0.026,22.546,3.076,31.135,10.036
					c2.643,2.142,3.049,6.021,0.908,8.664c-0.891,1.099-2.082,1.812-3.359,2.115L2032.1,1407.529z"/>
			</g>
			<g>
				<path style="fill:#000072;" d="M2344.768,1396.651c8.589-6.96,19.83-10.063,31.134-10.036
					c11.367,0.035,22.567,3.699,32.087,9.308c9.589,5.58,17.675,13.036,24.003,21.459c6.313,8.435,11.001,17.887,13.262,28.032
					c0.713,3.199-1.302,6.371-4.502,7.084c-1.797,0.4-3.585-0.06-4.934-1.107l-0.184-0.145c-7.545-5.924-14.401-11.5-21.296-16.481
					c-6.879-4.973-13.722-9.306-20.643-12.781c-6.962-3.453-13.877-5.993-21.195-8.277c-7.378-2.354-15.21-3.886-24.861-6.177
					l-0.415-0.099c-3.309-0.786-5.356-4.106-4.57-7.416C2342.98,1398.638,2343.748,1397.478,2344.768,1396.651z"/>
			</g>
			<g>
				<path style="fill:#000070;" d="M2235.448,1660.576c0,15.095-20.604,27.333-46.019,27.333s-46.019-12.237-46.019-27.333
					c0-15.095,20.604-22.87,46.019-22.87S2235.448,1645.48,2235.448,1660.576z"/>
			</g>
			<g>
				<path style="fill:#000072;" d="M2199.993,1670.626v41.835c0,1.62-0.372,3.154-1.035,4.52l-0.358,0.722
					c-5.493,11.198-16.232,19.687-27.852,23.241c-11.652,3.655-24.16,3.15-35.234-1.036c-11.11-4.047-20.793-12.192-26.326-22.345
					c-5.647-10.164-6.927-21.612-5.757-31.96c0.283-2.498,2.538-4.294,5.035-4.012c2.052,0.232,3.629,1.793,3.972,3.727l0.048,0.276
					c1.592,9.024,4.755,17.187,9.866,23.279c5.049,6.129,11.904,10.092,19.279,11.873c7.39,1.72,15.22,1.259,22.017-1.153
					c6.823-2.404,12.521-6.55,16.609-12.372l-1.392,5.24v-41.835c0-5.834,4.73-10.564,10.564-10.564
					S2199.993,1664.792,2199.993,1670.626z"/>
			</g>
			<g>
				<path style="fill:#000072;" d="M2199.993,1670.626v41.835l-1.392-5.24c4.088,5.822,9.786,9.968,16.61,12.372
					c6.797,2.412,14.625,2.873,22.015,1.153c7.374-1.78,14.23-5.743,19.28-11.873c5.111-6.093,8.273-14.256,9.865-23.279
					l0.049-0.271c0.436-2.476,2.798-4.129,5.273-3.692c2.032,0.359,3.511,2.02,3.733,3.971c1.171,10.348-0.11,21.796-5.757,31.96
					c-5.532,10.153-15.215,18.298-26.324,22.345c-11.075,4.186-23.584,4.692-35.234,1.036c-11.62-3.554-22.358-12.043-27.853-23.241
					l-0.333-0.679c-0.714-1.455-1.052-3.045-1.06-4.563v-41.835c0-5.834,4.73-10.564,10.564-10.564
					S2199.993,1664.792,2199.993,1670.626z"/>
			</g>
			<g>
				<g>
					<g>
						<g>
							<path style="fill:#000072;" d="M2021.358,1486.158c-37.401-7.423-75.158,26.974-84.333,76.826
								c-9.176,49.853,13.706,96.284,51.107,103.707c37.4,7.423,75.158-26.973,84.334-76.826
								C2081.64,1540.012,2058.758,1493.58,2021.358,1486.158z"/>
						</g>
					</g>
				</g>
				<g>
					<g>
						<g>
							<path style="fill:#FFFFFF;" d="M2017.061,1506.994c-12.367,3.377-18.877,19.997-14.54,37.12
								c4.337,17.123,17.877,28.266,30.244,24.888c12.366-3.377,18.876-19.996,14.539-37.119
								C2042.968,1514.759,2029.428,1503.616,2017.061,1506.994z"/>
						</g>
					</g>
				</g>
				<g>
					<g>
						<g>
							<path style="fill:#B199C5;" d="M1968.188,1611.163c-5.987,3.288-7.418,12.673-3.196,20.962
								c4.221,8.289,12.497,12.344,18.483,9.055c5.987-3.287,7.417-12.673,3.195-20.961
								C1982.451,1611.93,1974.174,1607.876,1968.188,1611.163z"/>
						</g>
					</g>
				</g>
			</g>
			<g>
				<g>
					<g>
						<g>
							<path style="fill:#000072;" d="M2368.132,1486.158c37.401-7.423,75.158,26.974,84.333,76.826
								c9.176,49.853-13.706,96.284-51.107,103.707c-37.4,7.423-75.158-26.973-84.334-76.826
								C2307.849,1540.012,2330.731,1493.58,2368.132,1486.158z"/>
						</g>
					</g>
				</g>
				<g>
					<g>
						<g>
							<path style="fill:#FFFFFF;" d="M2372.428,1506.994c12.367,3.377,18.877,19.997,14.54,37.12
								c-4.337,17.123-17.877,28.266-30.244,24.888c-12.366-3.377-18.876-19.996-14.539-37.119
								C2346.521,1514.759,2360.061,1503.616,2372.428,1506.994z"/>
						</g>
					</g>
				</g>
				<g>
					<g>
						<g>
							<path style="fill:#B199C5;" d="M2421.301,1611.163c5.987,3.288,7.417,12.673,3.196,20.962
								c-4.221,8.289-12.497,12.344-18.483,9.055c-5.987-3.287-7.417-12.673-3.196-20.961
								C2407.039,1611.93,2415.315,1607.876,2421.301,1611.163z"/>
						</g>
					</g>
				</g>
			</g>
		</g>
		<g>
			<g>
				<path style="fill:#CCCCCC;" d="M2655.956,1899.073H1171.769c-59.8,0-108.277,48.477-108.277,108.277v892.625
					c0,59.8,48.477,108.277,108.277,108.277h1484.188c59.8,0,108.277-48.477,108.277-108.277V2007.35
					C2764.233,1947.551,2715.756,1899.073,2655.956,1899.073z"/>
			</g>
			<g style="opacity:0.66;">
				<g>
					<path style="fill:#FFFFFF;" d="M2764.219,2007.339v38.55c0-59.8-48.45-108.3-108.251-108.3h-1484.2
						c-59.8,0-108.3,48.5-108.3,108.3v-38.55c0-59.8,48.5-108.25,108.3-108.25h1484.2
						C2715.769,1899.088,2764.219,1947.539,2764.219,2007.339z"/>
				</g>
			</g>
			<g style="opacity:0.66;">
				<g>
					<path style="fill:#FFFFFF;" d="M2647.373,2889.21H1180.352c-14.221,0-25.749-11.528-25.749-25.749v-21.787h1518.519v21.787
						C2673.122,2877.682,2661.594,2889.21,2647.373,2889.21z"/>
				</g>
			</g>
			<g>
				<path style="fill:#CCCCCC;" d="M2835.268,3193.116H992.958c-68.135,0-128.016-45.168-146.734-110.681l-5.365-18.778
					c-7.933-27.765,12.915-55.404,41.791-55.404h2062.43c28.396,0,49.166,26.786,42.094,54.288l-4.108,15.975
					C2965.721,3145.965,2904.912,3193.116,2835.268,3193.116z"/>
			</g>
			<g style="opacity:0.66;">
				<g>
					<path style="fill:#FFFFFF;" d="M1544.136,3008.253l8.451,36.973H882.643c-18.064,0-33.011,10.828-39.666,25.775l-2.113-7.341
						c-7.923-27.782,12.888-55.406,41.779-55.406H1544.136z"/>
				</g>
			</g>
			<g style="opacity:0.66;">
				<g>
					<path style="fill:#FFFFFF;" d="M2987.178,3062.55l-2.271,8.767c-6.602-15.105-21.656-26.092-39.825-26.092h-669.944
						l8.451-36.973h661.493C2973.498,3008.253,2994.256,3035.032,2987.178,3062.55z"/>
				</g>
			</g>
			<g style="opacity:0.3;">
				<g>
					<path style="fill:#000070;" d="M2987.178,3055.63l-4.12,15.951c-17.324,67.449-78.171,114.615-147.785,114.615H992.98
						c-68.135,0-128.031-45.16-146.782-110.707l-5.335-18.75c-4.437-15.528,0.106-30.952,9.983-41.567
						c22.659,58.1,78.857,97.079,142.134,97.079h1842.294c63.223,0,119.263-38.927,141.975-96.657
						C2986.65,3025.946,2991.034,3040.683,2987.178,3055.63z"/>
				</g>
			</g>
			<g>
				<rect x="1154.603" y="2041.682" style="fill:#000072;" width="1518.519" height="813.398"/>
			</g>
			<g style="opacity:0.15;">
				<polygon style="fill:#FFFFFF;" points="2023.249,2855.08 1746.905,2855.08 1325.892,2041.682 1602.236,2041.682 				"/>
			</g>
			<g style="opacity:0.15;">
				<polygon style="fill:#FFFFFF;" points="2345.491,2855.08 2179.167,2855.08 1758.155,2041.682 1924.426,2041.682 				"/>
			</g>
			<g>
				<path style="fill:#000072;" d="M2835.269,3210.615H992.957c-75.547,0-142.805-50.732-163.56-123.374l-5.366-18.774
					c-5.303-18.567-1.677-38.052,9.949-53.464c11.626-15.41,29.365-24.25,48.669-24.25h2062.429
					c18.984,0,36.546,8.606,48.179,23.608s15.593,34.153,10.864,52.539l-4.109,15.977
					C2980.675,3158.086,2912.928,3210.615,2835.269,3210.615z M882.65,3025.752c-8.223,0-15.776,3.765-20.728,10.327
					c-4.951,6.565-6.497,14.863-4.238,22.771l5.366,18.774c16.484,57.695,69.905,97.991,129.907,97.991h1842.312
					c61.68,0,115.486-41.721,130.847-101.458l4.109-15.977c2.014-7.83,0.327-15.984-4.629-22.373
					c-4.954-6.392-12.432-10.056-20.518-10.056H882.65z"/>
			</g>
			<g>
				<path style="fill:#000072;" d="M2655.955,3025.752H1171.768c-69.353,0-125.776-56.423-125.776-125.776v-892.625
					c0-69.353,56.423-125.776,125.776-125.776h1484.187c69.355,0,125.779,56.423,125.779,125.776v892.625
					C2781.734,2969.328,2725.311,3025.752,2655.955,3025.752z M1171.768,1916.574c-50.054,0-90.776,40.723-90.776,90.776v892.625
					c0,50.054,40.723,90.776,90.776,90.776h1484.187c50.056,0,90.779-40.723,90.779-90.776v-892.625
					c0-50.054-40.722-90.776-90.779-90.776H1171.768z"/>
			</g>
			<g>
				<path style="fill:#000072;" d="M2673.121,2870.08H1154.603c-8.284,0-15-6.716-15-15v-813.398c0-8.284,6.716-15,15-15h1518.518
					c8.284,0,15,6.716,15,15v813.398C2688.121,2863.364,2681.405,2870.08,2673.121,2870.08z M1169.603,2840.08h1488.518v-783.398
					H1169.603V2840.08z"/>
			</g>
			<g>
				<path style="fill:#000072;" d="M2211.646,3115.683H1616.08c-36.963,0-68.528-25.164-76.763-61.194l-9.805-42.896
					c-1.016-4.451,0.049-9.124,2.896-12.693c2.847-3.569,7.163-5.649,11.729-5.649h739.453c4.565,0,8.882,2.08,11.729,5.649
					s3.911,8.242,2.896,12.693l-9.805,42.896C2280.169,3090.52,2248.604,3115.683,2211.646,3115.683z M1562.953,3023.252
					l5.613,24.553c5.095,22.302,24.636,37.878,47.515,37.878h595.566c22.878,0,42.417-15.576,47.517-37.878l5.61-24.553H1562.953z"
					/>
			</g>
			<g style="opacity:0.3;">
				<g>
					<path style="fill:#000070;" d="M2211.646,3100.684h-595.568c-29.731,0-55.514-20.554-62.138-49.538l-9.804-42.894h739.453
						l-9.804,42.894C2267.16,3080.13,2241.377,3100.684,2211.646,3100.684z"/>
				</g>
			</g>
		</g>
		<g>
			<g>
				<path style="fill:#FFFFFF;" d="M1832.267,1872.876c0,49.966-52.818,60.529-117.995,60.529c-52.132,0-96.34-6.761-111.922-35.071
					c-3.908-7.078-6.021-15.476-6.021-25.458c0-49.966,52.818-90.478,117.943-90.478c58.733,0,107.484,32.906,116.463,76.006
					C1831.74,1863.104,1832.267,1867.964,1832.267,1872.876z"/>
			</g>
			<g style="opacity:0.3;">
				<path style="fill:#000072;" d="M1832.267,1872.876c0,49.966-52.818,60.529-117.995,60.529c-52.132,0-96.34-6.761-111.922-35.071
					c-0.475-3.01-0.74-6.233-0.74-9.613c0-4.965,0.528-9.772,1.532-14.525c20.599,6.919,47.378,9.032,76.692,9.032
					c65.177,0,117.995-10.564,117.995-60.529c0-0.582,0-1.11-0.053-1.691c14.789,9.983,26.25,22.818,32.958,37.396
					C1831.74,1863.104,1832.267,1867.964,1832.267,1872.876z"/>
			</g>
			<g>
				<path style="fill:#000072;" d="M1714.29,1948.406c-36.365,0-132.962,0-132.962-75.532c0-58.152,59.646-105.461,132.962-105.461
					c73.313,0,132.959,47.31,132.959,105.461C1847.249,1948.406,1750.655,1948.406,1714.29,1948.406z M1714.29,1797.412
					c-56.772,0-102.962,33.853-102.962,75.461c0,22.515,12.232,45.532,102.962,45.532c90.728,0,102.959-23.018,102.959-45.532
					C1817.249,1831.264,1771.063,1797.412,1714.29,1797.412z"/>
			</g>
		</g>
		<g>
			<g>
				<path style="fill:#FFFFFF;" d="M2738.601,1897.343c-12.167,48.462-65.967,45.846-129.182,29.975
					c-50.563-12.695-91.794-30.017-100.013-61.27c-2.067-7.816-2.072-16.476,0.359-26.158
					c12.167-48.462,73.26-74.893,136.425-59.034c56.965,14.302,96.236,58.089,94.45,102.078
					C2740.469,1887.737,2739.797,1892.578,2738.601,1897.343z"/>
			</g>
			<g style="opacity:0.3;">
				<path style="fill:#000072;" d="M2738.601,1897.343c-12.167,48.462-65.967,45.846-129.182,29.975
					c-50.563-12.695-91.794-30.017-100.013-61.27c0.272-3.036,0.801-6.225,1.624-9.503c1.209-4.816,2.892-9.349,5.023-13.715
					c18.294,11.726,43.752,20.297,72.184,27.435c63.215,15.871,117.016,18.487,129.183-29.974c0.142-0.564,0.27-1.076,0.36-1.653
					c11.913,13.283,19.904,28.523,22.86,44.296C2740.469,1887.737,2739.797,1892.578,2738.601,1897.343z"/>
			</g>
			<g>
				<path style="fill:#000072;" d="M2676.583,1952.593c-19.055,0-42.09-3.513-70.801-10.723
					c-38.853-9.753-65.354-20.564-83.403-34.016c-31.431-23.425-32.119-51.877-27.161-71.619
					c7.046-28.064,27.529-50.701,57.678-63.743c28.782-12.451,63.21-14.644,96.96-6.167
					c71.106,17.854,117.437,78.262,103.276,134.663c-4.956,19.744-19.001,44.495-57.771,50.295
					C2689.552,1952.153,2683.314,1952.593,2676.583,1952.593z M2609.366,1791.238c-15.854,0-31.06,2.952-44.561,8.789
					c-21.389,9.253-35.769,24.705-40.491,43.513c-4.146,16.511,0.786,28.926,15.991,40.261
					c14.568,10.857,38.374,20.334,72.781,28.972c34.402,8.635,59.861,11.536,77.837,8.84c18.755-2.805,28.968-11.421,33.113-27.93
					c10.132-40.356-26.424-84.436-81.485-98.262C2631.414,1792.627,2620.238,1791.238,2609.366,1791.238z"/>
			</g>
		</g>
		<g>
			<path style="fill:#000072;" d="M425,3189.816c63.105-9.06,126.211-11.229,189.316-12.342
				c63.106-1.253,126.212-0.589,189.317,0.093l94.658,0.548l94.658,0.034h189.317h757.267h757.267h378.633l94.659-0.034
				l47.329-0.419l47.329-0.725c31.553-0.378,63.105,0.206,94.658,1.674c31.553,1.898,63.105,4.556,94.658,11.17
				c3.221,0.675,5.286,3.834,4.611,7.056c-0.5,2.386-2.369,4.137-4.611,4.611c-31.553,6.614-63.105,9.272-94.658,11.17
				c-31.553,1.467-63.105,2.052-94.658,1.674l-47.329-0.725l-47.329-0.418l-94.659-0.033h-378.633h-757.267h-757.267H992.95
				l-94.658,0.034l-94.658,0.548c-63.105,0.682-126.211,1.346-189.317,0.093c-63.106-1.113-126.211-3.282-189.316-12.342
				c-3.221-0.462-5.458-3.449-4.996-6.671C420.384,3192.162,422.479,3190.179,425,3189.816z"/>
		</g>
	</g>
</g>
</svg>
